<svg width="20" height="20" viewBox="0 0 20 20" fill="none" xmlns="http://www.w3.org/2000/svg">
<path fill-rule="evenodd" clip-rule="evenodd" d="M8.86489 12.8747C8.58565 13.1471 8.41424 13.3141 8.41424 13.3141C7.24919 14.5439 6.08414 15.7089 4.85437 16.874C4.33657 17.3918 3.49515 17.3918 2.97735 16.874C2.39482 16.3562 2.39482 15.5795 2.91262 14.9969C3.52751 14.3821 4.14239 13.7833 4.75728 13.1846C5.37217 12.5859 5.98705 11.9872 6.60194 11.3723C6.60783 11.3665 6.63992 11.3328 6.69439 11.2756L6.72551 11.2429H6.34304H1.2945C0.582524 11.2429 0 10.6604 0 9.94839C0 9.23642 0.582524 8.6539 1.2945 8.6539H6.53722C6.54286 8.6539 6.58439 8.65242 6.6566 8.64986L6.6568 8.64985L6.79532 8.64496L6.47249 8.33027C5.69343 7.50792 4.88542 6.71452 4.08717 5.9307C3.69169 5.54237 3.2986 5.15638 2.91262 4.7704C2.39482 4.2526 2.39482 3.4759 2.91262 2.9581C3.43042 2.4403 4.27184 2.4403 4.72492 2.9581C5.95467 4.12313 7.18443 5.35289 8.41418 6.58264L8.41424 6.5827C8.42151 6.58997 8.47208 6.63727 8.5576 6.71726L8.5576 6.71727L8.55804 6.71767C8.63496 6.78963 8.74007 6.88795 8.86731 7.00731V1.4047C8.86731 1.1458 8.73786 0.82218 8.60841 0.56328C8.54369 0.304381 8.54369 0.239656 8.73786 0.174931C9.44984 -0.0839688 10.2265 -0.0839687 10.8738 0.369106C11.2621 0.628005 11.521 1.08108 11.4563 1.53415V6.51844C12.0418 5.93576 12.639 5.35308 13.2362 4.7704L13.2364 4.77029C13.8998 4.12308 14.5631 3.47586 15.2104 2.82865C15.7282 2.37558 16.5049 2.37558 17.0227 2.89338C17.6052 3.41118 17.6052 4.18788 17.0874 4.70568L13.3981 8.395C13.3981 8.40363 13.3093 8.49757 13.1555 8.6539H18.7055C19.4822 8.6539 20 9.23642 20 9.94839C20 10.6604 19.4175 11.2429 18.7055 11.2429H13.4628H13.2039C13.8306 11.8686 14.4719 12.4942 15.1133 13.1199L15.1134 13.12C15.7768 13.7672 16.4402 14.4144 17.0874 15.0617C17.5405 15.5795 17.5405 16.3562 17.0227 16.874C16.4401 17.4565 15.6634 17.4565 15.1456 16.9387L11.4563 13.2494V18.6863C11.4563 19.3982 11.0032 19.8513 10.2265 19.9808C9.57929 20.0455 8.99676 19.5924 8.80259 19.0099V18.6215C8.84565 16.6836 8.86007 14.7744 8.86489 12.8747Z" fill="white"/>
</svg>
