<svg width="13" height="9" viewBox="0 0 13 9" fill="none" xmlns="http://www.w3.org/2000/svg">
<path d="M12.761 0.451053C12.6164 0.353324 12.4277 0.353324 12.2831 0.451053L9.28799 2.19083V0.483271C9.28799 0.216368 9.07401 0 8.81005 0H0.477941C0.213982 0 0 0.216368 0 0.483271V8.1834C0 8.4503 0.213982 8.66667 0.477941 8.66667H8.81005C9.07401 8.66667 9.28799 8.4503 9.28799 8.1834V6.47584L12.2831 8.21561C12.4277 8.31334 12.6164 8.31334 12.761 8.21561C12.909 8.12923 13.0001 7.96955 13 7.79678V0.869888C13.0001 0.697122 12.909 0.537437 12.761 0.451053Z" fill="#FFFFFF"/>
</svg>
