<svg width="11" height="15" viewBox="0 0 11 15" fill="none" xmlns="http://www.w3.org/2000/svg">
<path fill-rule="evenodd" clip-rule="evenodd" d="M0 0V15H11V3.65853H7.80645C7.62066 3.65852 7.45163 3.48424 7.45161 3.29268V0H0ZM8.16129 0.365853V2.92683H10.6452L8.16129 0.365853ZM7.80645 5.85366H1.77419C1.57822 5.85366 1.41935 6.01745 1.41935 6.21951C1.41935 6.42157 1.57822 6.58536 1.77419 6.58536H7.80645C8.00243 6.58536 8.16129 6.42157 8.16129 6.21951C8.16129 6.01745 8.00243 5.85366 7.80645 5.85366ZM1.77419 8.78049H9.22581C9.42178 8.78049 9.58064 8.94428 9.58064 9.14634C9.58064 9.3484 9.42178 9.5122 9.22581 9.5122H1.77419C1.57822 9.5122 1.41935 9.3484 1.41935 9.14634C1.41935 8.94428 1.57822 8.78049 1.77419 8.78049ZM9.22581 11.7073H1.77419C1.57822 11.7073 1.41935 11.8711 1.41935 12.0732C1.41935 12.2752 1.57822 12.439 1.77419 12.439H9.22581C9.42178 12.439 9.58064 12.2752 9.58064 12.0732C9.58064 11.8711 9.42178 11.7073 9.22581 11.7073Z" fill="black"/>
</svg>
