<svg width="24" height="15" viewBox="0 0 24 15" fill="none" xmlns="http://www.w3.org/2000/svg">
<path fill-rule="evenodd" clip-rule="evenodd" d="M2 0.29296C2.2545 0.110715 2.55215 0 2.87643 0H22.1236C22.4479 0 22.7455 0.110715 23 0.29296L13.2561 9.67746C12.8101 10.1075 12.2079 10.1075 11.761 9.67746L2 0.29296ZM0 1.60955C0 1.39515 0.0393706 1.19134 0.104281 1L8 7.83071L0.293854 15C0.109831 14.7096 0 14.3668 0 13.9938V1.60955ZM23.8955 1L16 7.82102L23.7054 15C23.8899 14.7096 24 14.3668 24 13.9938V1.60955C24 1.39515 23.9605 1.19134 23.8955 1ZM14.0166 10.3753L15.8186 9L23 14.9276C22.8389 14.9726 22.6694 15 22.4915 15H2.50848C2.33058 15 2.16109 14.9726 2 14.9276L9.19923 9.00806L10.9924 10.3753C11.864 11.041 13.145 11.042 14.0166 10.3753Z" fill="black"/>
</svg>
