<svg width="13" height="12" viewBox="0 0 13 12" fill="none" xmlns="http://www.w3.org/2000/svg">
<path d="M11.5459 6.20483C11.5459 6.57621 11.5459 6.94625 11.5459 7.31763C11.5459 7.87804 11.5459 8.43846 11.5459 8.99888C11.5459 9.18524 11.5518 9.3716 11.5256 9.55662C11.5343 9.49763 11.543 9.4373 11.5518 9.37831C11.5242 9.55796 11.4733 9.73091 11.3978 9.8985C11.4225 9.84487 11.4472 9.79125 11.4704 9.73896C11.3949 9.90118 11.299 10.054 11.1828 10.1935C11.2206 10.1479 11.2583 10.1036 11.2961 10.058C11.1799 10.1961 11.0448 10.3208 10.8952 10.4281C10.9446 10.3932 10.9925 10.3584 11.0419 10.3235C10.8894 10.4308 10.7252 10.5206 10.5495 10.589C10.6076 10.5662 10.6657 10.5434 10.7223 10.5219C10.5422 10.5917 10.3534 10.6386 10.1587 10.6641C10.2226 10.656 10.288 10.648 10.3519 10.6399C10.0483 10.6761 9.73164 10.6587 9.42659 10.6587C8.847 10.6587 8.26887 10.6587 7.68928 10.6587C6.97896 10.6587 6.26718 10.6587 5.55686 10.6587C4.95112 10.6587 4.34393 10.6587 3.7382 10.6587C3.47382 10.6587 3.20945 10.66 2.94653 10.6587C2.84484 10.6587 2.74461 10.652 2.64439 10.6399C2.7083 10.648 2.77367 10.656 2.83758 10.6641C2.64293 10.6386 2.45555 10.5917 2.27397 10.5219C2.33208 10.5447 2.39018 10.5675 2.44683 10.589C2.27107 10.5193 2.10547 10.4308 1.9544 10.3235C2.00379 10.3584 2.05172 10.3932 2.10111 10.4281C1.95149 10.3208 1.8164 10.1961 1.70019 10.058C1.73796 10.1036 1.77573 10.1479 1.8135 10.1935C1.69729 10.0527 1.59996 9.90118 1.52588 9.73896C1.55057 9.79259 1.57527 9.84622 1.59851 9.8985C1.52297 9.73225 1.47213 9.55796 1.44453 9.37831C1.45325 9.4373 1.46197 9.49763 1.47068 9.55662C1.43146 9.27641 1.45034 8.98413 1.45034 8.70258C1.45034 8.16764 1.45034 7.63403 1.45034 7.09909C1.45034 6.44348 1.45034 5.78653 1.45034 5.13092C1.45034 4.57184 1.45034 4.01142 1.45034 3.45234C1.45034 3.20833 1.44889 2.96432 1.45034 2.72165C1.45034 2.6278 1.45761 2.53529 1.47068 2.44278C1.46197 2.50178 1.45325 2.56211 1.44453 2.6211C1.47213 2.44144 1.52297 2.26849 1.59851 2.1009C1.57382 2.15453 1.54912 2.20816 1.52588 2.26045C1.60142 2.09822 1.69729 1.94538 1.8135 1.80594C1.77573 1.85153 1.73796 1.89577 1.70019 1.94136C1.8164 1.80326 1.95149 1.67858 2.10111 1.57132C2.05172 1.60618 2.00379 1.64104 1.9544 1.67589C2.10692 1.56864 2.27107 1.47881 2.44683 1.41043C2.38873 1.43322 2.33062 1.45602 2.27397 1.47747C2.45409 1.40775 2.64293 1.36083 2.83758 1.33535C2.77367 1.3434 2.7083 1.35144 2.64439 1.35949C2.82015 1.33803 2.99737 1.34072 3.17459 1.34072C3.4317 1.34072 3.68881 1.34072 3.94592 1.34072C4.57344 1.34072 5.20242 1.34072 5.82995 1.34072C5.97811 1.34072 6.12773 1.34072 6.2759 1.34072C6.46183 1.34072 6.65793 1.26564 6.79012 1.14497C6.91649 1.02833 7.01091 0.837947 7.0022 0.670358C6.99348 0.497405 6.93247 0.31775 6.79012 0.195744C6.64776 0.0750801 6.47345 0 6.2759 0C5.90839 0 5.54088 0 5.17482 0C4.58071 0 3.98659 0 3.39248 0C3.24867 0 3.10341 0 2.9596 0C2.48315 0 2.02848 0.107257 1.60287 0.30032C1.12641 0.516175 0.724042 0.875487 0.442237 1.28709C0.151716 1.71075 0.00209821 2.22022 0.000645602 2.72031C-0.000807002 2.90801 0.000645602 3.09571 0.000645602 3.28475C0.000645602 3.74596 0.000645602 4.20717 0.000645602 4.66837C0.000645602 5.2489 0.000645602 5.82809 0.000645602 6.40862C0.000645602 6.95295 0.000645602 7.49728 0.000645602 8.04161C0.000645602 8.39556 0.000645602 8.75085 0.000645602 9.1048C0.000645602 9.16245 0.000645602 9.2201 0.000645602 9.27909C0.00209821 9.75236 0.13719 10.227 0.392849 10.6372C0.912881 11.4738 1.90646 11.9967 2.94943 11.9994C3.17459 12.0007 3.39974 11.9994 3.62489 11.9994C4.13621 11.9994 4.64753 11.9994 5.15884 11.9994C5.78927 11.9994 6.4197 11.9994 7.05013 11.9994C7.63263 11.9994 8.21512 11.9994 8.79762 11.9994C9.16512 11.9994 9.53263 11.9994 9.90014 11.9994C9.96406 11.9994 10.0294 12.0007 10.0933 11.9994C10.6352 11.99 11.1915 11.8452 11.6447 11.5677C12.0849 11.2982 12.4698 10.9255 12.695 10.4804C12.8896 10.0929 13 9.69203 13 9.263C13 8.86481 13 8.46796 13 8.06977C13 7.54153 13 7.01462 13 6.48638C13 6.39253 13 6.30002 13 6.20617C13 6.03456 12.9187 5.85356 12.7879 5.73156C12.6615 5.61492 12.4553 5.52777 12.2737 5.53581C12.0863 5.54386 11.8917 5.60017 11.7595 5.73156C11.6287 5.86161 11.5459 6.02249 11.5459 6.20483V6.20483Z" fill="black"/>
<path d="M9.12495 1.5C9.48109 1.5 9.83866 1.5 10.1948 1.5C10.7632 1.5 11.3302 1.5 11.8986 1.5C12.0282 1.5 12.1579 1.5 12.2875 1.5C12.4699 1.5 12.6622 1.416 12.7918 1.281C12.9157 1.1505 13.0083 0.9375 12.9998 0.75C12.9912 0.5565 12.9314 0.3555 12.7918 0.219C12.6522 0.084 12.4813 0 12.2875 0C11.9314 0 11.5738 0 11.2177 0C10.6492 0 10.0823 0 9.51386 0C9.38422 0 9.25458 0 9.12495 0C8.9426 0 8.75028 0.084 8.62064 0.219C8.49671 0.3495 8.40411 0.5625 8.41266 0.75C8.4212 0.9435 8.48104 1.1445 8.62064 1.281C8.76025 1.4145 8.93263 1.5 9.12495 1.5V1.5Z" fill="black"/>
<path d="M13.0001 3.80087C13.0001 3.45158 13.0001 3.10088 13.0001 2.75159C13.0001 2.19411 13.0001 1.63803 13.0001 1.08056C13.0001 0.953415 13.0001 0.826271 13.0001 0.699128C13.0001 0.520288 12.9145 0.331669 12.7768 0.204525C12.6438 0.0829704 12.4266 -0.00784649 12.2354 0.000536604C12.0381 0.0089197 11.8332 0.0676013 11.694 0.204525C11.5564 0.341449 11.4707 0.509111 11.4707 0.699128C11.4707 1.04842 11.4707 1.39912 11.4707 1.74841C11.4707 2.30589 11.4707 2.86197 11.4707 3.41944C11.4707 3.54659 11.4707 3.67373 11.4707 3.80087C11.4707 3.97971 11.5564 4.16833 11.694 4.29548C11.8271 4.41703 12.0442 4.50785 12.2354 4.49946C12.4327 4.49108 12.6376 4.4324 12.7768 4.29548C12.9129 4.15855 13.0001 3.98949 13.0001 3.80087V3.80087Z" fill="black"/>
<path d="M7.3005 6.5511C7.4834 6.37174 7.66769 6.19103 7.85059 6.01167C8.28706 5.58366 8.72492 5.1543 9.16139 4.72629C9.6893 4.2086 10.2172 3.69091 10.7465 3.17187C11.2052 2.72212 11.6624 2.27373 12.1211 1.82398C12.3428 1.60658 12.5686 1.39053 12.7875 1.17041C12.7903 1.1677 12.7931 1.16498 12.7972 1.1609C12.9233 1.03726 12.9995 0.855181 12.9995 0.679901C12.9995 0.512774 12.9247 0.314395 12.7972 0.198901C12.6656 0.0806886 12.4924 -0.00763071 12.3067 0.000521847C12.1224 0.0086744 11.9492 0.0698186 11.8162 0.198901C11.6333 0.378257 11.449 0.558972 11.2661 0.738328C10.8297 1.16634 10.3918 1.5957 9.95534 2.02371C9.42742 2.5414 8.8995 3.05909 8.3702 3.57813C7.91156 4.02788 7.45431 4.47627 6.99567 4.92602C6.77397 5.14342 6.54811 5.35947 6.32919 5.57959C6.32642 5.5823 6.32364 5.58502 6.31949 5.5891C6.1934 5.71275 6.11719 5.89482 6.11719 6.0701C6.11719 6.23723 6.19201 6.4356 6.31949 6.5511C6.45112 6.66931 6.62432 6.75763 6.81 6.74948C6.99428 6.74268 7.16748 6.68154 7.3005 6.5511V6.5511Z" fill="black"/>
</svg>
