<svg width="217" height="49" viewBox="0 0 217 49" fill="none" xmlns="http://www.w3.org/2000/svg">
<path fill-rule="evenodd" clip-rule="evenodd" d="M186.04 37.922C186.04 37.6936 186.011 37.5686 185.99 37.48C185.979 37.4316 185.97 37.394 185.97 37.3565C185.97 37.1798 186.182 37.0384 186.429 37.0384C187.03 37.0384 187.419 37.3919 187.419 37.816V43.6121C188.62 43.4707 191.059 42.1277 191.059 39.159C191.059 37.816 190.246 36.1195 188.161 36.1195C185.298 36.1195 184.167 37.9927 184.167 40.1485C184.167 41.6588 184.767 42.2357 184.834 42.3L184.839 42.3044C185.051 42.2337 185.121 42.3751 185.121 42.5518C185.121 42.8699 184.627 44.0362 184.132 43.6474C183.849 43.3647 182.824 42.3044 182.824 40.2546C182.824 36.9324 185.015 34.7766 188.161 34.7766C190.741 34.7766 192.437 36.579 192.437 39.0883C192.437 42.163 190.034 44.4249 187.454 44.9197V47.2523C187.454 47.5704 187.207 47.6764 186.959 47.6764C186.535 47.6764 186.076 47.429 186.076 47.1463V37.922H186.04ZM195.936 46.5101C195.017 46.5101 194.522 46.0153 194.275 45.4145C196.007 44.9197 196.89 43.3647 196.926 42.057C196.926 40.9967 196.325 40.2546 195.335 40.2546C193.957 40.2546 192.614 41.9156 192.614 44.1775C192.614 46.3687 194.134 47.6764 195.759 47.6764C198.339 47.6764 199.046 45.5559 199.188 44.4603C199.197 44.3778 199.188 44.3001 199.166 44.229C199.351 43.3157 199.435 42.2849 199.435 41.7389H199.647H200.99C200.425 43.2586 200.106 44.5309 200.106 45.6619C200.106 47.2169 201.131 47.6764 201.909 47.7117C202.652 47.7117 203.201 47.3311 203.605 46.8057V46.8989C203.605 47.535 204.1 47.6764 204.454 47.6764C204.948 47.6764 204.948 47.2523 204.948 46.8989V43.8594C205.478 41.9863 206.291 41.4208 206.715 41.4208C207.034 41.4208 207.281 41.7036 207.281 42.163C207.281 43.1857 206.624 43.7888 206.136 44.2362C205.848 44.5002 205.62 44.7099 205.62 44.9197C205.62 46.086 206.539 47.6764 207.952 47.6764C208.596 47.6764 209.124 47.3814 209.545 46.9668C209.918 47.2805 210.734 47.6764 211.451 47.6764C212.158 47.6764 212.759 47.429 213.183 47.0402C214.279 46.9695 214.985 46.6515 215.551 46.192C215.94 45.8386 216.364 45.1671 216.364 44.8137C216.364 44.5663 216.046 44.1068 215.728 44.1068C215.551 44.1068 215.445 44.2482 215.304 44.6016C215.127 45.1671 214.703 45.6972 213.855 45.8739C213.925 45.6972 213.961 45.4498 213.961 45.2378C213.961 44.1035 213.466 43.4471 212.882 42.6723C212.611 42.3124 212.321 41.9269 212.052 41.4562C212.052 41.4234 212.093 41.3468 212.149 41.2409C212.274 41.0041 212.476 40.6209 212.476 40.2546C212.476 39.7598 212.264 39.4417 211.84 39.4417C211.345 39.4417 210.32 40.2546 210.32 40.8554C210.32 41.1735 210.426 41.4208 210.603 41.7036C210.536 41.8969 210.466 42.0949 210.396 42.2943C210.131 43.0428 209.859 43.811 209.719 44.4249C209.703 44.4961 209.701 44.5658 209.712 44.6321C209.672 44.8006 209.613 44.9844 209.536 45.1689L209.524 45.1678C209.518 45.1673 209.513 45.1671 209.507 45.1671C209.26 45.1671 208.97 45.5395 209.019 46.0289C208.769 46.314 208.468 46.5101 208.129 46.5101C207.422 46.5101 207.034 45.8033 206.857 45.0257C207.564 44.4956 208.553 43.506 208.553 42.1277C208.553 41.1381 208.058 40.2192 206.963 40.2192C206.15 40.2192 205.443 40.9261 204.878 41.7036V36.1549C204.878 35.7308 204.524 35.3774 203.923 35.3774C203.676 35.3774 203.358 35.448 203.358 35.5894C203.358 35.6222 203.375 35.6482 203.398 35.6841C203.45 35.7645 203.535 35.8946 203.535 36.2609H203.605V44.1518C203.512 44.2311 203.435 44.3739 203.393 44.6016C203.252 45.3792 202.934 46.5101 202.121 46.5101C201.662 46.5101 201.414 46.0507 201.414 45.5559C201.414 44.2434 201.863 42.7555 202.093 41.9899L202.093 41.9898L202.093 41.9897C202.173 41.7246 202.227 41.5461 202.227 41.4915C202.298 41.1028 201.591 40.502 201.379 40.502H200.46C200.283 40.502 200.106 40.502 199.506 40.4313C199.294 39.6891 198.799 39.477 198.375 39.477C197.915 39.477 197.491 39.7951 197.491 40.2899C197.491 40.7847 197.809 41.1735 198.269 41.4208C198.269 42.3044 198.198 43.7888 197.986 44.4956C197.96 44.5834 197.958 44.672 197.973 44.757C197.695 45.6634 197.111 46.5101 195.936 46.5101ZM210.489 45.5633C211.106 45.8517 211.861 46.192 212.37 46.192C212.582 45.9446 212.759 45.5559 212.759 45.0964C212.759 43.9655 212.087 43.2233 211.487 42.5871C211.204 43.294 211.027 43.8948 210.78 44.743C210.773 44.7636 210.766 44.7833 210.759 44.8022C210.758 44.8422 210.754 44.8816 210.744 44.9197C210.682 45.108 210.597 45.3293 210.489 45.5633ZM195.512 42.057C195.512 43.1173 194.947 44.0362 194.063 44.4603C194.063 44.4111 194.055 44.3619 194.047 44.3091C194.038 44.2482 194.028 44.1826 194.028 44.1068C193.992 43.3647 194.24 41.4208 195.123 41.4208C195.371 41.4208 195.512 41.6682 195.512 42.057ZM213.36 39.8305H213.077V39.6184H213.961V39.8305H213.642V40.608H213.36V39.8305ZM215.021 40.0779V40.608H215.304V39.6184H215.091L214.738 40.1839L214.385 39.6184H214.173V40.608H214.42V40.0779L214.667 40.502H214.773L215.021 40.0779Z" fill="black"/>
<path fill-rule="evenodd" clip-rule="evenodd" d="M174.093 42.736C173.941 42.8847 173.847 42.9759 173.847 42.9759C173.211 43.6474 172.575 44.2836 171.904 44.9197C171.621 45.2024 171.161 45.2024 170.879 44.9197C170.561 44.637 170.561 44.2129 170.843 43.8948C171.179 43.5591 171.515 43.2322 171.851 42.9053L171.851 42.9052C172.186 42.5783 172.522 42.2514 172.858 41.9156C172.861 41.9124 172.879 41.894 172.908 41.8628L172.908 41.8628L172.925 41.845H172.716H169.96C169.571 41.845 169.253 41.5269 169.253 41.1381C169.253 40.7493 169.571 40.4313 169.96 40.4313H172.822C172.826 40.4313 172.848 40.4305 172.888 40.4291L172.963 40.4264L172.787 40.2546C172.362 39.8055 171.921 39.3723 171.485 38.9443L171.485 38.9443C171.269 38.7323 171.054 38.5215 170.843 38.3107C170.561 38.028 170.561 37.6039 170.843 37.3212C171.126 37.0384 171.586 37.0384 171.833 37.3212C172.504 37.9573 173.176 38.6288 173.847 39.3003C173.851 39.3043 173.879 39.3301 173.926 39.3738C173.968 39.4131 174.025 39.4669 174.095 39.5322V36.473C174.095 36.3316 174.024 36.1549 173.953 36.0135C173.918 35.8722 173.918 35.8368 174.024 35.8015C174.413 35.6601 174.837 35.6601 175.19 35.9075C175.402 36.0489 175.544 36.2963 175.508 36.5436V39.2652C175.828 38.9471 176.154 38.6289 176.48 38.3108L176.48 38.3107C176.843 37.9573 177.205 37.6039 177.558 37.2505C177.841 37.0031 178.265 37.0031 178.548 37.2858C178.866 37.5686 178.866 37.9927 178.583 38.2754L176.569 40.2899C176.569 40.2946 176.52 40.3459 176.436 40.4313H179.467C179.891 40.4313 180.174 40.7493 180.174 41.1381C180.174 41.5269 179.856 41.845 179.467 41.845H176.604H176.463C176.805 42.1866 177.155 42.5282 177.505 42.8699L177.505 42.8699C177.868 43.2233 178.23 43.5767 178.583 43.9301C178.831 44.2129 178.831 44.637 178.548 44.9197C178.23 45.2378 177.806 45.2378 177.523 44.955L175.508 42.9406V45.9093C175.508 46.298 175.261 46.5454 174.837 46.6161C174.484 46.6515 174.165 46.4041 174.059 46.086V45.8739C174.083 44.8158 174.091 43.7733 174.093 42.736Z" fill="black"/>
<path fill-rule="evenodd" clip-rule="evenodd" d="M148.471 36.8971V36.9324V44.2835H147.8V43.0819C147.588 43.4707 147.34 43.7888 146.952 44.0008C146.598 44.2129 146.174 44.3189 145.715 44.3189C145.22 44.3189 144.796 44.2129 144.407 43.9655C144.018 43.7534 143.736 43.4353 143.523 43.0112C143.311 42.5871 143.205 42.163 143.205 41.6329C143.205 41.1028 143.311 40.6787 143.523 40.2899C143.736 39.9011 144.018 39.5831 144.407 39.371C144.796 39.159 145.22 39.0176 145.715 39.0176C146.174 39.0176 146.598 39.1236 146.952 39.3357C147.305 39.5477 147.588 39.8658 147.8 40.2546V36.8971H148.471ZM146.846 43.4707C147.128 43.294 147.376 43.0466 147.552 42.7285C147.729 42.4104 147.8 42.057 147.8 41.6682C147.8 41.2795 147.729 40.9261 147.552 40.608C147.376 40.2899 147.164 40.0425 146.846 39.8658C146.563 39.6891 146.209 39.5831 145.821 39.5831C145.432 39.5831 145.114 39.6891 144.796 39.8658C144.513 40.0425 144.266 40.2899 144.089 40.608C143.912 40.9261 143.842 41.2795 143.842 41.6682C143.842 42.057 143.912 42.4104 144.089 42.7285C144.266 43.0466 144.478 43.294 144.796 43.4707C145.079 43.6474 145.432 43.7181 145.821 43.7181C146.209 43.7181 146.563 43.6474 146.846 43.4707ZM136.066 39.0529C135.607 39.0529 135.218 39.159 134.9 39.371C134.582 39.5831 134.335 39.9011 134.193 40.2899V39.0883H133.522V44.2835H134.193V41.5269C134.229 40.9614 134.441 40.502 134.759 40.1839C135.077 39.8305 135.536 39.6891 136.066 39.6891V39.0529ZM110.161 40.3252C109.949 39.9365 109.666 39.6184 109.277 39.4063C108.888 39.159 108.464 39.0529 107.969 39.0883C107.51 39.0883 107.086 39.1943 106.732 39.4063C106.379 39.6184 106.096 39.9011 105.92 40.2899V39.0883H105.248V46.192H105.92V43.0819C106.132 43.4353 106.414 43.7534 106.768 43.9655C107.121 44.1775 107.545 44.2835 108.005 44.2835C108.464 44.2835 108.888 44.1775 109.277 43.9655C109.666 43.7534 109.949 43.4353 110.161 43.0466C110.373 42.6578 110.479 42.1984 110.479 41.7036C110.479 41.1734 110.373 40.714 110.161 40.3252ZM109.56 42.7285C109.383 43.0466 109.136 43.294 108.853 43.4707C108.535 43.612 108.217 43.7181 107.899 43.7181C107.51 43.7181 107.157 43.6474 106.874 43.4707C106.556 43.294 106.344 43.0466 106.167 42.7285C105.99 42.4104 105.92 42.057 105.92 41.6682C105.92 41.2795 105.99 40.9261 106.167 40.608C106.344 40.2899 106.591 40.0425 106.874 39.8658C107.157 39.6891 107.475 39.6184 107.863 39.6184C108.217 39.6184 108.57 39.6891 108.853 39.8658C109.171 40.0425 109.383 40.2899 109.56 40.608C109.736 40.9261 109.807 41.2795 109.807 41.6682C109.807 42.057 109.736 42.4104 109.56 42.7285ZM116.593 40.3252C116.381 39.9365 116.063 39.6184 115.674 39.4063C115.285 39.159 114.826 39.0883 114.331 39.0883C113.836 39.0883 113.377 39.1943 112.988 39.4063C112.599 39.6184 112.281 39.9365 112.069 40.3252C111.822 40.714 111.716 41.1734 111.716 41.6682C111.716 42.1984 111.857 42.6578 112.069 43.0466C112.281 43.4353 112.599 43.7534 112.988 43.9655C113.377 44.1775 113.836 44.2835 114.331 44.2835C114.826 44.2835 115.285 44.1775 115.674 43.9655C116.063 43.7534 116.381 43.4353 116.593 43.0466C116.84 42.6225 116.946 42.163 116.946 41.6682C116.946 41.1734 116.805 40.714 116.593 40.3252ZM112.635 40.608C112.811 40.3252 113.059 40.0778 113.341 39.9011C113.624 39.7244 113.978 39.6537 114.366 39.6537C114.755 39.6537 115.073 39.7598 115.391 39.9011C115.709 40.0425 115.921 40.2899 116.098 40.608C116.275 40.9261 116.345 41.2795 116.345 41.6682C116.345 42.057 116.275 42.4458 116.098 42.7285C115.921 43.0112 115.674 43.2586 115.391 43.4353C115.073 43.612 114.755 43.6827 114.366 43.6827C113.978 43.6827 113.624 43.612 113.341 43.4353C113.023 43.294 112.811 43.0466 112.635 42.7285C112.458 42.4104 112.387 42.057 112.387 41.6682C112.387 41.2795 112.458 40.9261 112.635 40.608ZM118.36 39.0883H117.653L119.597 44.2835H120.304L121.894 39.9011L123.485 44.2835H124.191L126.135 39.0883H125.428L123.838 43.612L122.248 39.0883H121.541L119.95 43.612L118.36 39.0883ZM131.755 41.8803C131.755 41.0321 131.578 40.3252 131.154 39.8305C130.73 39.3357 130.093 39.0529 129.316 39.1236C128.821 39.1236 128.397 39.2296 128.008 39.4417C127.62 39.6537 127.301 39.9718 127.089 40.3606C126.877 40.7493 126.771 41.2088 126.771 41.7036C126.771 42.1984 126.877 42.6578 127.089 43.0466C127.301 43.4353 127.62 43.7534 128.008 43.9655C128.397 44.1775 128.857 44.2835 129.351 44.2835C129.775 44.2835 130.164 44.2129 130.518 44.0715C130.871 43.9301 131.189 43.7181 131.436 43.4353L131.048 43.0466C130.836 43.2586 130.588 43.4353 130.306 43.5414C130.023 43.6474 129.705 43.7181 129.387 43.7181C128.857 43.7181 128.397 43.5767 128.044 43.2233C127.69 42.8699 127.478 42.4458 127.443 41.8803H131.755ZM131.116 41.3502L131.118 41.3855V41.3502H131.116ZM131.116 41.3502H127.407C127.443 40.82 127.655 40.3959 128.008 40.0778C128.362 39.7598 128.786 39.5831 129.316 39.5831C129.846 39.5831 130.27 39.7598 130.588 40.0778C130.899 40.4234 131.075 40.8365 131.116 41.3502ZM142.004 41.8803C142.004 41.0321 141.827 40.3252 141.403 39.8305C140.979 39.3357 140.343 39.0529 139.565 39.1236C139.07 39.1236 138.646 39.2296 138.257 39.4417C137.869 39.6537 137.551 39.9718 137.339 40.3606C137.127 40.7493 137.021 41.2088 137.021 41.7036C137.021 42.1984 137.127 42.6578 137.339 43.0466C137.551 43.4353 137.869 43.7534 138.257 43.9655C138.646 44.1775 139.106 44.2835 139.6 44.2835C140.025 44.2835 140.413 44.2129 140.767 44.0715C141.12 43.9301 141.438 43.7181 141.686 43.4353L141.297 43.0466C141.085 43.2586 140.837 43.4353 140.555 43.5414C140.272 43.6474 139.954 43.7181 139.636 43.7181C139.106 43.7181 138.646 43.5767 138.293 43.2233C137.939 42.8699 137.727 42.4458 137.692 41.8803H142.004ZM141.365 41.3502L141.368 41.3855V41.3502H141.365ZM141.365 41.3502H137.657C137.692 40.82 137.904 40.3959 138.257 40.0778C138.611 39.7598 139.035 39.5831 139.565 39.5831C140.095 39.5831 140.519 39.7598 140.837 40.0778C141.148 40.4234 141.324 40.8365 141.365 41.3502ZM158.933 40.3252C158.721 39.9365 158.438 39.6184 158.049 39.4063C157.66 39.159 157.236 39.0529 156.741 39.0883C156.282 39.0883 155.858 39.1943 155.504 39.4063C155.151 39.6184 154.868 39.9011 154.692 40.2899V36.9324H154.02V44.2835H154.692V43.0819C154.904 43.4353 155.186 43.7534 155.54 43.9655C155.893 44.1775 156.317 44.2835 156.777 44.2835C157.236 44.2835 157.66 44.1775 158.049 43.9655C158.438 43.7534 158.721 43.4353 158.933 43.0466C159.145 42.6578 159.251 42.1984 159.251 41.7036C159.251 41.1734 159.145 40.714 158.933 40.3252ZM158.332 42.7285C158.155 43.0466 157.908 43.294 157.625 43.4707C157.342 43.612 156.989 43.7181 156.671 43.7181C156.282 43.7181 155.929 43.6474 155.646 43.4707C155.328 43.294 155.116 43.0466 154.939 42.7285C154.762 42.4104 154.692 42.057 154.692 41.6682C154.692 41.2795 154.762 40.9261 154.939 40.608C155.116 40.2899 155.363 40.0425 155.646 39.8658C155.929 39.6891 156.247 39.6184 156.635 39.6184C156.989 39.6184 157.342 39.6891 157.625 39.8658C157.943 40.0425 158.155 40.2899 158.332 40.608C158.508 40.9261 158.579 41.2795 158.579 41.6682C158.579 42.057 158.508 42.4104 158.332 42.7285ZM160.912 46.2274C161.23 46.2274 161.548 46.1213 161.795 45.9093C162.043 45.6972 162.255 45.4145 162.361 45.0257L164.764 39.0883H164.093L162.396 43.5414L160.629 39.0883H159.922L162.078 44.2482L161.866 44.7783C161.76 45.0257 161.619 45.2378 161.442 45.3791C161.265 45.5205 161.088 45.5912 160.876 45.5912C160.629 45.5912 160.382 45.4852 160.134 45.3438L159.851 45.8739C160.17 46.1213 160.523 46.2274 160.912 46.2274Z" fill="black"/>
<path fill-rule="evenodd" clip-rule="evenodd" d="M43.6118 21.8767L39.4414 24.3153C40.8197 28.0969 44.2479 30.4295 49.1605 30.4295C51.8111 30.4295 53.967 29.758 55.6281 28.415C57.2891 27.072 58.1373 25.2696 58.1373 22.9723C58.1373 21.5586 57.7486 20.3217 57.2184 19.4735C56.759 18.6253 55.6281 17.7417 54.8859 17.2823C54.5324 17.0349 54.0023 16.7875 53.3308 16.5401C52.6593 16.2573 52.1292 16.0453 51.7404 15.9393L50.044 15.3738C48.2062 14.8083 46.9693 14.2782 46.2978 13.8187C45.6616 13.324 45.3435 12.6878 45.3435 11.9103C45.3435 10.4612 46.5805 9.43633 48.595 9.43633C50.7509 9.43633 52.3412 10.4966 53.3308 12.6171L57.4305 10.2492C55.7341 6.75034 52.5886 4.7005 48.595 4.7005C46.3684 4.7005 44.4246 5.372 42.8342 6.715C41.2438 8.02265 40.4663 9.82509 40.4663 12.0516C40.4663 14.3135 41.2792 16.0099 42.7989 17.1409C44.3539 18.2365 45.6969 18.7666 47.9235 19.4381C49.938 20.0036 51.3163 20.5337 52.0938 21.0285C52.8714 21.488 53.2601 22.1595 53.2601 23.043C53.2601 24.5627 52.0232 25.6583 49.3018 25.6583C46.4745 25.6583 44.566 24.386 43.6118 21.8767ZM76.9039 19.0847C76.9039 16.7875 76.2678 15.0204 74.9955 13.7127C73.7585 12.4051 72.1681 11.7689 70.2243 11.7689C67.821 11.7689 66.0539 12.5818 64.9583 14.2428V5.19529H60.3992V29.9347H64.9583V20.3924C64.9583 17.459 66.4781 16.0099 68.846 16.0099C70.9665 16.0099 72.3448 17.2823 72.3448 19.6502V29.9347H76.9039V19.0847ZM81.8518 27.7435C83.6543 29.5459 85.8808 30.4295 88.4961 30.4295C91.1114 30.4295 93.338 29.5459 95.1404 27.7435C96.9429 25.9411 97.8618 23.7145 97.8618 21.0992C97.8618 18.4839 96.9429 16.2927 95.1404 14.4902C93.338 12.6878 91.1114 11.7689 88.4961 11.7689C85.8808 11.7689 83.6543 12.6878 81.8518 14.4902C80.0494 16.2927 79.1658 18.4839 79.1658 21.0992C79.1658 23.7145 80.0494 25.9411 81.8518 27.7435ZM91.9243 24.5981C91.0054 25.517 89.8745 25.9764 88.4961 25.9764C87.1178 25.9764 85.9868 25.517 85.068 24.5981C84.1844 23.6792 83.725 22.5129 83.725 21.0992C83.725 19.6855 84.1844 18.5192 85.068 17.6003C85.9868 16.6814 87.1178 16.222 88.4961 16.222C89.8745 16.222 91.0054 16.6814 91.9243 17.6003C92.8432 18.5192 93.3026 19.6855 93.3026 21.0992C93.3026 22.5129 92.8432 23.6792 91.9243 24.5981ZM124.404 12.2637H119.562L116.558 23.149L113.342 12.2637H109.03L105.814 23.1137L102.81 12.2637H97.9678L103.587 29.9347H107.934L111.186 19.2261L114.437 29.9347H118.784L124.404 12.2637ZM127.196 27.7435C125.429 25.9411 124.545 23.7498 124.545 21.0992C124.545 18.4485 125.429 16.2573 127.196 14.4549C128.998 12.6525 131.225 11.7689 133.875 11.7689C137.303 11.7689 140.343 13.536 141.792 16.328L137.869 18.6253C137.162 17.1762 135.642 16.2573 133.84 16.2573C131.119 16.2573 129.104 18.2718 129.104 21.0992C129.104 22.4775 129.564 23.6438 130.447 24.5627C131.331 25.4463 132.462 25.9057 133.84 25.9057C135.678 25.9057 137.197 25.0222 137.904 23.5731L141.863 25.835C140.308 28.627 137.303 30.4295 133.875 30.4295C131.225 30.4295 128.998 29.5459 127.196 27.7435ZM156.706 12.2637H161.265V29.9347H156.706V27.8495C155.328 29.5813 153.419 30.4295 150.945 30.4295C148.578 30.4295 146.563 29.5459 144.867 27.7435C143.206 25.9411 142.357 23.7145 142.357 21.0992C142.357 18.4839 143.206 16.2927 144.867 14.4902C146.563 12.6878 148.578 11.7689 150.945 11.7689C153.419 11.7689 155.328 12.6171 156.706 14.3489V12.2637ZM151.794 26.0824C153.207 26.0824 154.374 25.623 155.293 24.7041C156.247 23.7498 156.706 22.5482 156.706 21.0992C156.706 19.6502 156.247 18.4485 155.293 17.5297C154.374 16.5754 153.207 16.116 151.794 16.116C150.38 16.116 149.214 16.5754 148.295 17.5297C147.376 18.4485 146.916 19.6502 146.916 21.0992C146.916 22.5482 147.376 23.7498 148.295 24.7041C149.214 25.623 150.38 26.0824 151.794 26.0824ZM171.974 19.2261C174.554 19.7562 177.911 20.9932 177.876 24.7748C177.876 26.5772 177.205 27.9909 175.826 28.9805C174.483 29.9347 172.787 30.4295 170.772 30.4295C167.132 30.4295 164.658 29.0158 163.351 26.2238L167.309 23.9972C167.839 25.517 168.97 26.2945 170.772 26.2945C172.398 26.2945 173.211 25.7997 173.211 24.7748C173.211 23.8205 171.797 23.2904 169.995 22.831C167.38 22.1595 164.093 21.0639 164.093 17.3883C164.093 15.6565 164.729 14.2782 166.001 13.2886C167.309 12.2637 168.899 11.7689 170.808 11.7689C173.67 11.7689 176.144 13.1119 177.523 15.5152L173.635 17.6357C173.07 16.4341 172.115 15.8332 170.808 15.8332C169.641 15.8332 168.758 16.3987 168.758 17.2823C168.758 18.2365 170.172 18.7666 171.974 19.2261ZM183.708 22.9723C184.308 25.1989 185.969 26.2945 188.691 26.2945C190.423 26.2945 191.766 25.6937 192.649 24.5274L196.325 26.6479C194.593 29.1572 192.013 30.4295 188.62 30.4295C185.687 30.4295 183.354 29.5459 181.587 27.7788C179.82 26.0117 178.936 23.7852 178.936 21.0992C178.936 18.4485 179.82 16.222 181.552 14.4549C183.283 12.6525 185.545 11.7689 188.267 11.7689C190.847 11.7689 193.002 12.6525 194.664 14.4549C196.36 16.2573 197.208 18.4485 197.208 21.0992C197.208 21.7 197.137 22.3008 197.031 22.9723H183.708ZM192.649 19.4381C192.119 17.0349 190.352 15.8686 188.267 15.8686C185.828 15.8686 184.167 17.1762 183.637 19.4381H192.649Z" fill="black"/>
<path fill-rule="evenodd" clip-rule="evenodd" d="M199.011 12.5111H199.859V14.7023H200.636V12.5111H201.52V11.9102H199.011V12.5111ZM204.489 13.1826V14.7023V14.7376H205.196V11.9456H204.559L203.57 13.5713L202.58 11.9456H201.944V14.7376H202.651V13.2532L203.393 14.4195H203.747L204.489 13.1826Z" fill="black"/>
<path d="M1.02525 19.4381V19.4381C0.0710117 18.4839 0.0710117 16.8935 1.02525 15.9392L16.0103 0.954232C16.9645 -2.74181e-06 18.5549 -2.74181e-06 19.5091 0.954232V0.954232C20.4634 1.90847 20.4634 3.49886 19.5091 4.45309L4.52411 19.4381C3.56987 20.4277 2.01482 20.4277 1.02525 19.4381Z" fill="#FC2D37"/>
<path d="M6.78599 25.1989V25.1989C5.83175 24.2446 5.83175 22.6542 6.78599 21.7L13.7837 14.7023C14.7379 13.748 16.3283 13.748 17.2826 14.7023V14.7023C18.2368 15.6565 18.2368 17.2469 17.2826 18.2011L10.2848 25.1989C9.33061 26.1531 7.74022 26.1531 6.78599 25.1989Z" fill="#F5EF4A"/>
<path d="M4.52427 38.9469V38.9469C3.57004 37.9927 3.57004 36.4023 4.52427 35.448L19.5093 20.463C20.4635 19.5088 22.0539 19.5088 23.0081 20.463V20.463C23.9624 21.4173 23.9624 23.0076 23.0081 23.9619L8.02313 38.9469C7.06889 39.9011 5.51385 39.9011 4.52427 38.9469Z" fill="#5AF173"/>
</svg>
