<svg width="20" height="22" viewBox="0 0 20 22" fill="none" xmlns="http://www.w3.org/2000/svg">
<path fill-rule="evenodd" clip-rule="evenodd" d="M0.6897 3.03923C2.76568 -0.199828 4.42646 -1.60811 6.29484 2.68716C7.60962 5.71497 7.40202 5.71497 5.39525 7.61616C4.01126 8.95403 5.94884 11.0665 7.60962 12.8972C9.2704 14.6576 11.208 16.8404 12.6612 15.5026C14.6679 13.6014 14.6679 13.3901 17.5051 14.9392C21.6571 17.1925 20.0655 18.6712 16.8131 20.5724C10.2392 24.0931 -3.18546 9.44693 0.6897 3.03923ZM15.9135 10.7144C15.6367 11.7706 14.0452 11.3481 14.3219 10.2919C14.9447 8.17947 12.7304 5.78539 10.6544 6.20787C9.6164 6.48953 9.2704 4.79959 10.3084 4.58834C13.63 3.8842 16.8823 7.40492 15.9135 10.7144ZM19.5811 11.9114C19.4427 12.9676 17.7819 12.8268 17.9203 11.7002C18.4739 6.77119 14.3219 2.33509 9.478 2.47592C8.37081 2.54633 8.30161 0.856386 9.4088 0.785972C15.2215 0.574729 20.2039 5.99663 19.5811 11.9114Z" fill="black"/>
</svg>
